<svg xmlns="http://www.w3.org/2000/svg" viewBox="0 0 900 620" role="img" aria-labelledby="title desc">
  <title id="title">Research map for 1993&ndash;2000, Volume XXVIII, Rwanda; Central Africa</title>
  <desc id="desc">Abstract source map showing lanes, archives, chronology, persons, and gap register blocks.</desc>
  <rect width="900" height="620" fill="#f3f1ec"/>
  <rect x="42" y="42" width="816" height="536" rx="18" fill="#fffdf8" stroke="#d8d1c4"/>
  <rect x="42" y="42" width="816" height="68" rx="18" fill="#315c90"/>
  <text x="72" y="84" fill="#ffffff" font-family="Arial" font-size="26" font-weight="800">frus1993-00v28</text>
  <text x="72" y="148" fill="#637074" font-family="Arial" font-size="15" font-weight="700">Being Researched source workspace</text>
  <text x="72" y="178" fill="#1d2527" font-family="Arial" font-size="22" font-weight="800">Rwanda; Central Africa</text>
  <rect x="70" y="198" width="300" height="26" rx="5" fill="#ffffff" opacity=".92"/><text x="84" y="216" fill="#1d2527" font-family="Arial" font-size="13" font-weight="700">Rwanda</text><rect x="70" y="244" width="282" height="26" rx="5" fill="#e9e4d9" opacity=".92"/><text x="84" y="262" fill="#1d2527" font-family="Arial" font-size="13" font-weight="700">Central Africa</text>
  <rect x="430" y="190" width="150" height="112" rx="12" fill="#e9e4d9"/>
  <text x="456" y="236" fill="#1d2527" font-family="Arial" font-size="16" font-weight="800">Sources</text>
  <text x="470" y="264" fill="#657074" font-family="Arial" font-size="32" font-weight="900">8</text>
  <rect x="615" y="190" width="150" height="112" rx="12" fill="#e9e4d9"/>
  <text x="638" y="236" fill="#1d2527" font-family="Arial" font-size="16" font-weight="800">Documents</text>
  <text x="674" y="264" fill="#657074" font-family="Arial" font-size="32" font-weight="900">5</text>
  <rect x="430" y="330" width="150" height="112" rx="12" fill="#e9e4d9"/>
  <text x="454" y="376" fill="#1d2527" font-family="Arial" font-size="16" font-weight="800">Chronology</text>
  <text x="470" y="404" fill="#657074" font-family="Arial" font-size="32" font-weight="900">4</text>
  <rect x="615" y="330" width="150" height="112" rx="12" fill="#e9e4d9"/>
  <text x="655" y="376" fill="#1d2527" font-family="Arial" font-size="16" font-weight="800">Persons</text>
  <text x="674" y="404" fill="#657074" font-family="Arial" font-size="32" font-weight="900">7</text>
  <path d="M370 248 C410 248 390 246 430 246" fill="none" stroke="#315c90" stroke-width="4"/>
  <path d="M370 294 C430 310 388 386 430 386" fill="none" stroke="#315c90" stroke-width="4" opacity=".7"/>
  <path d="M580 246 C610 246 586 246 615 246" fill="none" stroke="#315c90" stroke-width="4"/>
  <path d="M580 386 C610 386 586 386 615 386" fill="none" stroke="#315c90" stroke-width="4"/>
  <text x="72" y="528" fill="#657074" font-family="Arial" font-size="14" font-weight="700">Synced May 29, 2026 from history.state.gov</text>
</svg>
